<svg width="198" height="52" viewBox="0 0 198 52" fill="none" xmlns="http://www.w3.org/2000/svg">
<path d="M29.5289 6.98757C28.3902 5.57778 27.4455 4.79669 26.8749 4.49822C26.6668 4.38899 26.4153 4.52362 26.3885 4.75605L26.211 6.33094C26.211 6.33094 26.211 6.33856 26.2098 6.34237C25.9672 7.56418 25.5408 8.68566 24.8247 9.70172C23.9336 10.9667 22.9302 12.1441 21.9332 13.324C20.6464 14.8481 19.7068 16.5233 19.3621 18.511C19.0532 20.2916 19.1693 22.0113 19.9353 23.6687C20.1779 24.1933 20.1715 24.1831 19.6174 24.2377C17.6898 24.4282 15.7864 24.7419 14.0144 25.57C12.9064 26.0882 12.0932 26.8858 11.8851 28.1483C11.8289 28.4899 11.8251 28.843 11.8315 29.191C11.8366 29.4615 11.783 29.5822 11.4676 29.5809C8.56849 29.5657 5.66806 29.5657 2.76892 29.5619C2.71275 29.5619 2.66296 29.525 2.64764 29.4717C2.48806 28.9256 2.41913 28.3617 2.40636 27.7977C2.38083 26.6407 2.35147 25.4811 2.40509 24.3266C2.49189 22.4456 2.79572 20.6028 3.4136 18.8056C3.86168 17.5038 4.3736 16.2324 5.00424 15.0157C5.51104 14.0378 6.12253 13.1182 6.7736 12.2152C7.69658 10.935 8.69487 9.73347 9.84253 8.65898C11.7255 6.89358 13.8025 5.41267 16.1553 4.29374C18.1991 3.32213 20.3157 2.63375 22.5383 2.29083C24.6944 1.95807 26.8557 1.88314 29.0374 2.21209C31.6417 2.60327 34.1196 3.32721 36.443 4.55664C40.0098 6.44397 43.0264 8.94475 45.3178 12.2952C46.5868 14.1495 47.5404 16.1334 48.3357 18.2252C48.9957 19.9614 49.3149 21.742 49.5051 23.5709C49.6506 24.9642 49.5766 26.3562 49.574 27.7469C49.574 28.3197 49.4553 28.8938 49.38 29.4666C49.371 29.5314 49.3149 29.5784 49.2498 29.5758C49.1132 29.5695 48.9753 29.5593 48.8413 29.5758C48.4468 29.6241 48.2617 29.5085 48.1876 29.0742C48.0344 28.1648 47.571 27.3862 46.9225 26.7347C44.8391 24.6403 41.6502 24.3749 39.2464 26.0984C39.0204 26.261 38.8736 26.2686 38.6706 26.1212C38.2021 25.7834 37.6978 25.4951 37.1527 25.3033C35.5047 24.7242 33.7915 24.4473 32.0681 24.2314C31.7591 24.1933 31.6238 24.1679 31.8319 23.8262C33.5591 20.9889 33.8298 17.9115 33.2783 14.7185C33.2093 14.1762 32.2162 10.3139 29.5289 6.98884V6.98757Z" fill="#EDFFBE"/>
<path d="M13.9279 28.8798C16.2424 29.9988 18.7279 30.2312 21.2007 30.47C24.7739 30.8154 28.3752 30.7824 31.942 30.3785C33.9896 30.1461 36.0335 29.8553 37.9075 28.9052C38.2152 28.749 38.2432 28.8837 38.2381 29.1466C38.1922 31.5927 37.5169 33.8573 36.2569 35.9542C35.2917 37.5595 34.0075 38.8626 32.4398 39.8863C30.9564 40.8554 29.3262 41.4523 27.5709 41.7152C25.2296 42.0658 23.0224 41.6555 20.8917 40.656C20.0632 40.2673 19.1977 39.8876 18.5645 39.2716C17.7564 38.4854 16.9037 37.7081 16.2845 36.7391C15.8275 36.024 15.2186 35.3712 14.9249 34.5964C14.5088 33.5004 14.0543 32.3967 13.9228 31.2041C13.8424 30.47 13.7135 29.7422 13.7479 28.9891C13.7517 28.8976 13.8475 28.8417 13.9292 28.8811L13.9279 28.8798Z" fill="#EDFFBE"/>
<path d="M23.3371 26.0902C23.2541 26.0902 23.1928 26.0114 23.2158 25.9314C23.5847 24.655 24.4056 23.6973 25.4473 22.8985C26.152 22.3574 26.9001 21.871 27.555 21.2677C28.3209 20.5603 28.9847 19.7804 29.2694 18.7466C29.295 18.6552 29.3307 18.565 29.332 18.4456C29.3333 18.3262 29.1852 18.2741 29.1099 18.363C27.6979 20.0433 25.8111 21.0518 24.0507 22.3282C23.9588 22.3955 23.8299 22.3155 23.8516 22.2037C24.0341 21.2385 24.4056 20.4104 24.9737 19.675C25.7205 18.7098 26.5426 17.8004 27.2716 16.8237C28.2762 15.4774 28.8456 13.9737 28.6822 12.2578C28.6554 11.9733 28.5967 11.6951 28.4703 11.4361C28.4154 11.3243 28.3528 11.1858 28.1971 11.2201C28.0682 11.2481 28.0656 11.3891 28.0528 11.4932C28.0171 11.7752 28.0094 12.0622 27.966 12.3429C27.8269 13.2586 27.4465 14.074 26.9116 14.8792C26.8605 14.9554 26.7482 14.9529 26.6984 14.8754C25.9796 13.745 25.7894 12.5791 26.2643 11.309C26.4047 10.9344 26.6154 10.6003 26.8247 10.2638C27.1784 9.69859 27.5294 9.13087 27.6877 8.47551C27.7541 8.20244 27.8639 8.1999 28.0209 8.3866C28.3184 8.73714 28.6286 9.08133 28.8903 9.45728C30.9111 12.3556 31.995 15.5359 31.4639 19.0819C30.9839 22.2838 29.2796 24.6334 26.1584 25.8285C25.9452 25.9098 25.7345 26.0025 25.5239 26.0902C25.5086 26.0965 25.4907 26.1003 25.4741 26.1003C24.7618 26.0965 24.0482 26.094 23.3358 26.0902H23.3371Z" fill="#EDFFBE"/>
<path d="M23.1538 26.0898C23.1614 26.0885 23.1691 26.0872 23.178 26.0872C23.9504 26.0911 24.7227 26.0949 25.4951 26.0987C26.7193 26.1368 27.9436 26.1711 29.1691 26.213C31.1414 26.279 33.1138 26.3679 35.0517 26.782C35.3963 26.8556 35.921 26.8607 35.9312 27.276C35.944 27.7472 35.3938 27.7422 35.044 27.8107C31.6546 28.475 28.2231 28.6185 24.7789 28.5677C22.2602 28.5296 19.758 28.3048 17.2699 27.92C16.9674 27.873 16.6699 27.798 16.3763 27.7104C16.1772 27.6507 15.9729 27.5669 15.9614 27.3243C15.9474 27.0284 16.2321 26.9598 16.4517 26.8849C17.1027 26.6639 17.7819 26.5635 18.4636 26.5038C19.9214 26.3743 21.3819 26.2651 22.841 26.1444C22.947 26.1355 23.0504 26.1101 23.1551 26.0911L23.1538 26.0898Z" fill="#EDFFBE"/>
<path d="M40.5374 37.0482C40.5284 37.0482 40.5195 37.0482 40.5118 37.0507C40.1646 37.1256 39.7689 37.0151 39.3769 36.9516C38.8318 36.864 38.3582 36.1921 38.4386 35.7031C38.5408 35.0872 39.0642 34.6604 39.7165 34.7595C40.4518 34.8712 41.1629 34.903 41.8803 34.668C43.5846 34.1105 44.7348 32.3006 44.371 30.7245C44.0403 29.2918 42.7357 28.6123 41.3735 29.1623C40.8591 29.3706 40.3829 29.2359 40.125 28.8092C39.8812 28.4066 40.0101 27.8744 40.4876 27.5175C41.2982 26.913 42.2327 26.758 43.208 26.9307C45.2212 27.2851 46.6982 29.0149 46.7199 31.0877C46.7454 33.6012 45.4242 35.6676 43.0165 36.6493C42.2467 36.9631 41.4297 37.071 40.5361 37.0469L40.5374 37.0482Z" fill="#EDFFBE"/>
<path d="M23.9219 14.9669C23.9219 14.9669 23.9219 14.9554 23.9219 14.9504C23.9449 14.5173 24.0176 14.1185 24.2729 13.7781C24.5908 13.3539 24.8576 13.3818 25.0542 13.867C25.1653 14.1439 25.2406 14.4347 25.33 14.7205C25.4193 15.0062 25.441 15.3415 25.6095 15.5689C26.0627 16.1772 25.7602 16.5926 25.3746 17.0612C25.1423 17.3432 25.0172 17.3063 24.7963 17.0777C24.2206 16.4783 23.964 15.7594 23.9219 14.9681V14.9669Z" fill="#EDFFBE"/>
<path d="M22.6404 16.0218C22.8485 16.0268 22.9506 16.1564 23.0298 16.291C23.4063 16.9299 23.7153 17.6106 24.2412 18.1529C24.3293 18.2431 24.3 18.3155 24.2195 18.393C24.1519 18.459 24.0932 18.534 24.0293 18.6038C23.5161 19.1601 23.3438 19.1703 22.7757 18.6775C22.2115 18.1885 21.9446 17.1432 22.2166 16.4561C22.2983 16.2504 22.3915 16.0421 22.6391 16.0218H22.6404Z" fill="#EDFFBE"/>
<path d="M26 50.0035C39.2548 50.0035 50 39.3132 50 26.1261C50 12.939 39.2548 2.24872 26 2.24872C12.7452 2.24872 2 12.939 2 26.1261C2 39.3132 12.7452 50.0035 26 50.0035Z" stroke="#EDFFBE" stroke-width="3" stroke-miterlimit="10"/>
<path d="M15.8078 40.5726H12.269C11.7149 40.5726 11.2656 41.0196 11.2656 41.5709V41.5722C11.2656 42.1235 11.7149 42.5705 12.269 42.5705H15.8078C16.3619 42.5705 16.8112 42.1235 16.8112 41.5722V41.5709C16.8112 41.0196 16.3619 40.5726 15.8078 40.5726Z" fill="#EDFFBE"/>
<path d="M33.9802 43.7128H18.0112C17.4571 43.7128 17.0078 44.1597 17.0078 44.711V44.7123C17.0078 45.2637 17.4571 45.7106 18.0112 45.7106H33.9802C34.5343 45.7106 34.9836 45.2637 34.9836 44.7123V44.711C34.9836 44.1597 34.5343 43.7128 33.9802 43.7128Z" fill="#EDFFBE"/>
<path d="M39.6155 40.5726H36.3628C35.8086 40.5726 35.3594 41.0196 35.3594 41.5709V41.5722C35.3594 42.1235 35.8086 42.5705 36.3628 42.5705H39.6155C40.1697 42.5705 40.6189 42.1235 40.6189 41.5722V41.5709C40.6189 41.0196 40.1697 40.5726 39.6155 40.5726Z" fill="#EDFFBE"/>
<path d="M12.5106 34.9608H7.3468C6.81872 34.9608 6.39062 35.3867 6.39062 35.9121C6.39062 36.4375 6.81872 36.8634 7.3468 36.8634H12.5106C13.0387 36.8634 13.4668 36.4375 13.4668 35.9121C13.4668 35.3867 13.0387 34.9608 12.5106 34.9608Z" fill="#EDFFBE"/>
<path d="M9.16245 31.4398H6.58117C6.05309 31.4398 5.625 31.8658 5.625 32.3911C5.625 32.9165 6.05309 33.3424 6.58117 33.3424H9.16245C9.69053 33.3424 10.1186 32.9165 10.1186 32.3911C10.1186 31.8658 9.69053 31.4398 9.16245 31.4398Z" fill="#EDFFBE"/>
<path d="M74.92 35.0018H71.944V17.4578H74.92L80.584 31.4258L86.248 17.4578H89.272V35.0018H86.296V29.6018C86.296 26.0738 86.296 25.0418 86.464 23.7938L82 35.0018H79.168L74.728 23.8178C74.896 24.8738 74.92 26.5298 74.92 28.7138V35.0018ZM92.0269 29.0498C92.0269 25.3538 94.6909 22.8098 98.3629 22.8098C102.035 22.8098 104.699 25.3538 104.699 29.0498C104.699 32.7458 102.035 35.2898 98.3629 35.2898C94.6909 35.2898 92.0269 32.7458 92.0269 29.0498ZM94.9549 29.0498C94.9549 31.2098 96.3469 32.6738 98.3629 32.6738C100.379 32.6738 101.771 31.2098 101.771 29.0498C101.771 26.8898 100.379 25.4258 98.3629 25.4258C96.3469 25.4258 94.9549 26.8898 94.9549 29.0498ZM106.324 29.0498C106.324 25.3538 108.988 22.8098 112.66 22.8098C116.332 22.8098 118.996 25.3538 118.996 29.0498C118.996 32.7458 116.332 35.2898 112.66 35.2898C108.988 35.2898 106.324 32.7458 106.324 29.0498ZM109.252 29.0498C109.252 31.2098 110.644 32.6738 112.66 32.6738C114.676 32.6738 116.068 31.2098 116.068 29.0498C116.068 26.8898 114.676 25.4258 112.66 25.4258C110.644 25.4258 109.252 26.8898 109.252 29.0498ZM126.189 35.3138C122.757 35.3138 120.621 32.7938 120.621 29.1218C120.621 25.4258 122.781 22.7858 126.357 22.7858C128.013 22.7858 129.477 23.4818 130.221 24.6578V17.1458H133.125V35.0018H130.437L130.245 33.1538C129.525 34.5218 127.989 35.3138 126.189 35.3138ZM126.837 32.6258C128.877 32.6258 130.197 31.1618 130.197 29.0258C130.197 26.8898 128.877 25.4018 126.837 25.4018C124.797 25.4018 123.549 26.9138 123.549 29.0258C123.549 31.1378 124.797 32.6258 126.837 32.6258ZM143.077 35.0018V17.4578H150.061C153.517 17.4578 155.629 19.2578 155.629 22.1858C155.629 24.1298 154.765 25.5218 153.109 26.2178C154.957 26.8178 155.893 28.2098 155.893 30.2498C155.893 33.2498 153.805 35.0018 150.181 35.0018H143.077ZM149.797 20.1698H146.149V24.9458H149.869C151.549 24.9458 152.485 24.0578 152.485 22.4978C152.485 20.9858 151.525 20.1698 149.797 20.1698ZM150.061 27.5378H146.149V32.2898H150.061C151.789 32.2898 152.749 31.4498 152.749 29.8658C152.749 28.3778 151.765 27.5378 150.061 27.5378ZM165.718 23.0978V25.8098H164.638C162.526 25.8098 161.206 26.9378 161.206 29.2418V35.0018H158.278V23.1698H161.038L161.206 24.8978C161.71 23.7218 162.838 22.9298 164.422 22.9298C164.83 22.9298 165.238 22.9778 165.718 23.0978ZM172.605 35.3138C169.077 35.3138 166.605 32.7458 166.605 29.0738C166.605 25.3538 169.029 22.7858 172.509 22.7858C176.061 22.7858 178.317 25.1618 178.317 28.8578V29.7458L169.389 29.7698C169.605 31.8578 170.709 32.9138 172.653 32.9138C174.261 32.9138 175.317 32.2898 175.653 31.1618H178.365C177.861 33.7538 175.701 35.3138 172.605 35.3138ZM172.533 25.1858C170.805 25.1858 169.749 26.1218 169.461 27.8978H175.413C175.413 26.2658 174.285 25.1858 172.533 25.1858ZM182.761 35.0018L178.921 23.1458H181.969L183.529 28.2338C183.793 29.1698 184.033 30.2018 184.249 31.3058C184.465 30.1538 184.681 29.4098 185.065 28.2338L186.697 23.1458H189.673L191.257 28.2338C191.401 28.7138 191.881 30.4898 192.025 31.2818C192.217 30.3938 192.601 28.9778 192.817 28.2338L194.401 23.1458H197.497L193.393 35.0018H190.657L189.025 29.8658C188.545 28.3058 188.281 27.1778 188.185 26.5778C188.065 27.1298 187.849 27.9698 187.249 29.9138L185.617 35.0018H182.761Z" fill="#EDFFBE"/>
</svg>
